<?xml version="1.0" encoding="utf-8"?>
<!-- Generator: Adobe Illustrator 18.1.1, SVG Export Plug-In . SVG Version: 6.00 Build 0)  -->
<svg version="1.1" id="Layer_1" xmlns="http://www.w3.org/2000/svg" xmlns:xlink="http://www.w3.org/1999/xlink" x="0px" y="0px"
	 width="500px" height="500px" viewBox="0 0 500 500" style="enable-background:new 0 0 500 500;" xml:space="preserve">
<style type="text/css">
	.st0{fill:#751C17;}
	.st1{fill:#D48128;}
	.st2{fill:#FDBF19;}
	.st3{fill:#A02E2A;}
	.st4{fill:none;stroke:#A02E2A;stroke-width:15.6373;stroke-miterlimit:10;}
</style>
<g>
	<circle class="st0" cx="249.7" cy="249.7" r="220.2"/>
	<path class="st1" d="M253.7,371.1c-3.8,2.3-8.6,1.8-12.1-1c-19.8-16.6-91.6-76-111.9-82c-23.6-7-86.8-79.1-90.3-89.3
		c0,0,7.5-28.8,26.8-50.8c0,0,47.1-5.8,59.4,0c12.3,5.8,26.7-11.6,40-10.6c13.3,1,38,13.3,51.3,13.3c13.3,0,19.9-15.5,32.5-13.4
		s51.6,17.5,65,16.5c13.3-1,30.8-15.4,41-11.3s39,14.4,49.2,10.3s24.9-9.6,31-0.9c6.1,8.7,14.8,22.7,14.8,22.7l11.3,22.6
		c0,0-34.5,44.8-49.8,50c-15.4,5.1-55.4,44.1-69.8,54.4C329.5,310.6,275.9,358,253.7,371.1z"/>
	<g>
		<path class="st2" d="M397.9,239.4c3.7-2.5,6.9-4.3,9.5-5.1c14.9-5,48.3-48.4,48.3-48.4l-1.3-2.6c-18.6,6.7-73.8,7.2-88.7,0.6
			c-14.9-6.7-70.5-5.3-83.5-3.9c-12.9,1.3-44.7,11.6-71.5,4.5c-26.8-7.1-90.4-4.8-103.3,0c-12.9,4.8-47.7,4.1-62.2,0
			c1.9,5.6,23.2,31.6,45.3,54.3c0,0,0,0,0,0c12.4,13.2-26.5,26.5-34,47.8C49,308,96.4,313.8,90.9,295c-5.4-18.9,13.4-42.8,19.1-37.6
			c0,0,0.1,0,0.1,0.1c9.6,8.4,18.2,14.6,24.2,16.4c4.5,1.3,11.8,5.5,20.4,11.2c3.5,2.4,1.6,8.4-2.6,11.5c-4.2,3.1-2.3,15.2,6.5,16.9
			c8.7,1.7,6.2-21.3,13-16.6c1.4,1,2.8,2,4.2,3.1c3.1,2.3-1.5,25-6.7,31.4c-5.2,6.5-3.2,20.4,7.7,20.9c10.9,0.5,3.6-23.7,6.1-29.5
			c2.6-5.8,7.8-11.5,13.1-7.3c19.7,15.4,38.2,30.7,46.7,37.9c3.3,2.8,8,3.2,11.7,1c1.7-1,3.7-2.3,5.8-3.7c0,0,0,0,0,0
			c5.4-3.8,7.6,39.2,0,49.6c-7.6,10.4,7.3,27.3,20.9,20.4s-6.7-51.7-6.2-62.3c0.5-10.7,2.5-20.3,8.3-25c0,0,0,0,0,0
			c11.4-9.1,23.7-19.3,34-27.9c8-6.7,17.8,18.2,14.4,27.7c-3.4,9.5,8.8,16.4,18.3,2.7c9.5-13.7-24.2-37.7-14.8-45
			c1.9-1.5,3.6-2.8,4.8-3.7c6.9-4.9,19.8-16.6,32.9-27.7c7.3-6.1-0.5,16.9,7.6,18.9c8.1,2,22.8-1.8,18.3-10.9
			c-4.5-9-19.1-13.8-14.6-17.5c1.6-1.3,3.1-2.4,4.6-3.6c3.3-2.4,4.2,10.3,13,10.6c8.8,0.3,8.8-4.1,6.3-7.8
			C405.5,245.2,392.2,243,397.9,239.4z"/>
		<path class="st1" d="M107.4,184.5c12.9-4.8,76.5-7.1,103.3,0c26.8,7.1,58.6-3.2,71.5-4.5c12.9-1.3,68.5-2.7,83.5,3.9
			c14.9,6.7,70.1,6.1,88.7-0.6l-2.6-21.1c0,0-6.2-8.1-12.1-16.5c-5.9-8.4-29.3-6.9-39.3-2.9c-9.9,4-37.8-6-47.7-9.9
			s-26.8,9.9-39.7,10.9s-50.7-13.9-62.9-15.9c-12.2-2-18.6,13-31.5,13c-12.9,0-36.8-11.9-49.7-12.9c-12.9-1-26.8,15.9-38.7,10.2
			c-11.9-5.7-66.4,1.5-66.4,1.5c-18.6,21.3-18.6,44.7-18.6,44.7C59.7,188.6,94.5,189.3,107.4,184.5z"/>
		<path class="st3" d="M107.4,184.5c12.9-4.8,76.5-7.1,103.3,0c26.8,7.1,58.6-3.2,71.5-4.5c12.9-1.3,68.5-2.7,83.5,3.9
			c14.9,6.7,70.1,6.1,88.7-0.6l-2.7-5.5c0,0-0.7-0.9-3.8-1.2c-12.2-1.3-25-1.8-34.9,2.2s-47.5-2.4-57.5-6.3
			c-9.9-4-35.5-3.3-48.4-2.3s-45.6,1.8-56.9,5.7c-11.7,4-22.4-1.4-35.3-1.4c-12.9,0-31.4-4.9-44.3-5.9s-29.9,0.4-42.7,3.6
			c-15.3,3.9-75.7-3.3-75.7-3.3c-6.9,13.7-6.9,15.5-6.9,15.5C59.7,188.6,94.5,189.3,107.4,184.5z"/>
	</g>
	<circle class="st4" cx="249.7" cy="249.7" r="220.2"/>
	<ellipse class="st3" cx="333.7" cy="217.9" rx="21.1" ry="14.6"/>
	<ellipse class="st3" cx="146" cy="255.3" rx="21.1" ry="11.1"/>
	<ellipse class="st3" cx="100.4" cy="197.6" rx="29.7" ry="15.5"/>
	<ellipse class="st3" cx="257.3" cy="217.7" rx="27.2" ry="18.3"/>
	<ellipse class="st3" cx="293.6" cy="277" rx="22.5" ry="13.6"/>
	<ellipse class="st3" cx="174" cy="220.6" rx="19.7" ry="10.1"/>
	<path class="st3" d="M432,213.9c0,0-8.8,12.7-17.5,16.4c-10.9,0-17.5-4.5-17.5-10.1c0-5.6,8.8-10.1,19.7-10.1
		S429.3,212.6,432,213.9z"/>
	<path class="st3" d="M245.8,335.6c0,7.5-2.5,8.7-10.5,11.5l-26.7-21.8c2.2-1.7,2.3-3.3,14.8-3.3S245.8,328.1,245.8,335.6z"/>
	<ellipse class="st3" cx="215.5" cy="281.3" rx="30.2" ry="17.1"/>
</g>
<g>
</g>
<g>
</g>
<g>
</g>
<g>
</g>
<g>
</g>
<g>
</g>
</svg>
